Coordinates
version=1
nRows=16
nColumns=42
inDegrees=yes

Units are S.I. units (second, meters, Newtons, ...)
If the header above contains a line with 'inDegrees', this indicates whether rotational values are in degrees (yes) or radians (no).

endheader
time	pelvis_tilt	pelvis_list	pelvis_rotation	pelvis_tx	pelvis_ty	pelvis_tz	hip_flexion_r	hip_adduction_r	hip_rotation_r	knee_angle_r	knee_adduction_r	knee_angle_r_beta	ankle_angle_r	subtalar_angle_r	mtp_angle_r	hip_flexion_l	hip_adduction_l	hip_rotation_l	knee_angle_l	knee_adduction_l	knee_angle_l_beta	ankle_angle_l	subtalar_angle_l	mtp_angle_l	lumbar_extension	lumbar_bending	lumbar_rotation	arm_flex_r	arm_add_r	arm_rot_r	elbow_flex_r	pro_sup_r	wrist_flex_r	wrist_dev_r	arm_flex_l	arm_add_l	arm_rot_l	elbow_flex_l	pro_sup_l	wrist_flex_l	wrist_dev_l
      1.96000000	      0.26607154	      0.80553543	     -7.62533156	      0.11039913	      0.86499546	     -0.17197291	    -19.90088254	     -8.72225672	      0.38152769	     16.37825729	     14.26386239	      0.28585452	     11.67791578	      6.73006958	     -7.50558965	     23.05176982	     -7.07114399	     -5.90780234	     12.30513991	     14.72412264	      0.21476521	     -3.75399112	     -6.22374475	     -7.50558965	    -11.60632983	     -1.92056080	      5.71425558	     -4.82587287	    -13.48873689	     -5.71559533	     18.84582221	     90.00000001	      0.00000000	      0.00000000	    -13.86521199	     -8.14411866	      4.66651147	     21.01955797	     90.00000001	      0.00000000	      0.00000000
      1.97000000	      0.44770599	      1.01960280	     -7.45975338	      0.12268812	      0.86589137	     -0.17318881	    -19.68103150	     -9.34451003	      0.26566510	     18.58662873	     14.55191265	      0.32439787	      9.47856143	      6.41649372	     -7.50546552	     22.86462740	     -6.72198223	     -5.25494384	     13.59459128	     15.00350756	      0.23727038	     -4.54032313	     -6.30835163	     -7.50546552	    -11.89764553	     -2.27234284	      5.49168610	     -5.06957607	    -13.42697276	     -5.75735713	     18.69602687	     90.00000001	      0.00000000	      0.00000000	    -13.70402661	     -8.35426236	      4.62156752	     21.01541859	     90.00000001	      0.00000000	      0.00000000
      1.98000000	      0.65582336	      1.15370154	     -7.25232399	      0.13493394	      0.86706747	     -0.17447050	    -19.30971914	     -9.90042057	      0.06643278	     21.08366922	     14.84332949	      0.36797945	      7.06932128	      6.25148273	     -7.50534914	     22.56367522	     -6.45450071	     -4.63604170	     14.77108578	     15.30339226	      0.25780408	     -4.88049270	     -6.40248602	     -7.50534914	    -12.23229720	     -2.51460253	      5.23543197	     -5.29016935	    -13.39054718	     -5.83570517	     18.54177558	     90.00000001	      0.00000000	      0.00000000	    -13.52518358	     -8.56132561	      4.56327620	     21.01631003	     90.00000001	      0.00000000	      0.00000000
      1.99000000	      0.48845295	      1.37102856	     -6.99380368	      0.14676282	      0.86779672	     -0.17590821	    -17.94056940	    -10.59007072	     -1.41278954	     24.92189569	     14.76699076	      0.43496914	      5.28336480	      8.43639302	     -7.50478484	     22.71228808	     -6.11735416	     -3.99180705	     15.97020578	     15.57748721	      0.27873267	     -4.96929835	     -6.65226816	     -7.50478484	    -12.16424797	     -2.76940700	      4.94377598	     -5.51089316	    -13.32679513	     -6.05313516	     18.33186521	     90.00000001	      0.00000000	      0.00000000	    -13.34174695	     -8.77442527	      4.45028183	     21.01668845	     90.00000001	      0.00000000	      0.00000000
      2.00000000	      0.99124266	      1.36600797	     -6.65495305	      0.15885831	      0.86981610	     -0.17743322	    -17.85720270	    -11.03025011	     -0.81020453	     27.06789612	     15.36644594	      0.47242391	      3.22521036	      8.18621044	     -7.50475557	     21.85943272	     -5.94236386	     -3.17962708	     16.76826374	     16.02328881	      0.29266141	     -4.68111004	     -6.62626425	     -7.50475557	    -12.90033512	     -2.82490813	      4.54758876	     -5.62995292	    -13.34512010	     -6.09302600	     18.20500510	     90.00000001	      0.00000000	      0.00000000	    -13.07227599	     -8.95519104	      4.44389474	     21.06105470	     90.00000001	      0.00000000	      0.00000000
      2.01000000	      1.12556540	      1.47727190	     -6.51784796	      0.17091544	      0.87147871	     -0.17838326	    -16.65144992	    -11.55592493	     -1.49682008	     30.71161546	     15.15232627	      0.53601881	     -0.49835058	      7.15403227	     -7.50468331	     21.23712466	     -5.72350693	     -3.03208159	     17.37244396	     16.22905073	      0.30320635	     -3.79198249	     -6.61326578	     -7.50468331	    -13.13530319	     -3.03539573	      4.38621147	     -5.86755004	    -13.27473915	     -6.12120029	     18.01741065	     90.00000001	      0.00000000	      0.00000000	    -12.89181844	     -9.23319497	      4.38757559	     21.11650477	     90.00000001	      0.00000000	      0.00000000
      2.02000000	      1.13346645	      1.53317190	     -6.26106793	      0.18246844	      0.87306757	     -0.17974277	    -15.22994536	    -12.03780171	     -1.64988769	     34.20749253	     15.21809933	      0.59703337	     -2.96313835	      6.60484578	     -7.50460822	     20.78965972	     -5.53156472	     -2.74757034	     17.97837947	     16.47548048	      0.31378192	     -2.84485176	     -6.30766285	     -7.50460822	    -13.30907772	     -3.09431109	      4.12865705	     -6.05831497	    -13.25307745	     -6.15071618	     17.85515442	     90.00000001	      0.00000000	      0.00000000	    -12.63561249	     -9.43655219	      4.35608342	     21.20581129	     90.00000001	      0.00000000	      0.00000000
      2.03000000	      0.61536213	      1.62892716	     -5.98528423	      0.19350922	      0.87384950	     -0.18129153	    -12.87962418	    -12.53995225	     -2.04204611	     38.22083018	     15.03189819	      0.66707933	     -4.51692697	      6.91994107	     -7.50437742	     21.16603885	     -5.31962037	     -3.05460111	     19.15523077	     16.45611442	      0.33432185	     -1.64609928	     -5.06866376	     -7.50437742	    -12.89411852	     -3.09822672	      3.85551039	     -6.27915735	    -13.26682502	     -6.18129827	     17.70804543	     90.00000001	      0.00000000	      0.00000000	    -12.42500161	     -9.62212219	      4.33792514	     21.24790964	     90.00000001	      0.00000000	      0.00000000
      2.04000000	      1.07445418	      1.41093340	     -5.46727608	      0.20496830	      0.87623232	     -0.18274146	    -12.19265368	    -12.56472077	     -1.36084044	     40.70577019	     15.46542177	      0.71044971	     -5.55302688	      6.48717061	     -7.50432426	     20.07553713	     -5.29033821	     -2.63940938	     19.53363207	     16.68969885	      0.34092619	     -0.93432503	     -4.66687435	     -7.50432426	    -13.63226024	     -2.83291069	      3.30109020	     -6.37109925	    -13.29697009	     -6.19158152	     17.73626545	     90.00000001	      0.00000000	      0.00000000	    -12.15439819	     -9.82514130	      4.34176850	     21.43768484	     90.00000001	      0.00000000	      0.00000000
      2.05000000	      0.84012292	      1.52567964	     -5.57599433	      0.21622635	      0.87770012	     -0.18328730	     -9.92272577	    -12.92072409	     -1.31641558	     44.35290852	     14.82997586	      0.77410429	     -7.49776558	      4.43218627	     -7.50422473	     19.40400821	     -5.18350902	     -2.84864907	     19.36392235	     16.88208810	      0.33796420	      0.65923223	     -3.85316640	     -7.50422473	    -13.44446864	     -3.00174728	      3.45141617	     -6.62781750	    -13.25886220	     -6.10681106	     17.48615703	     90.00000001	      0.00000000	      0.00000000	    -11.97365645	    -10.10470358	      4.32724318	     21.63193582	     90.00000001	      0.00000000	      0.00000000
      2.06000000	      0.43240887	      1.56388563	     -5.36835766	      0.22695686	      0.87895704	     -0.18448571	     -7.62070762	    -13.14675796	     -0.64471869	     47.46027895	     14.88191805	      0.82833813	     -8.01977903	      2.58294408	     -7.50409600	     19.20248595	     -4.98968864	     -3.09073881	     19.63277921	     16.79988786	      0.34265664	      1.59574664	     -2.80263665	     -7.50409600	    -13.14147434	     -2.95217063	      3.25396688	     -6.81219375	    -13.25751312	     -6.06861610	     17.36562801	     90.00000001	      0.00000000	      0.00000000	    -11.75679630	    -10.32143948	      4.36355132	     21.76942101	     90.00000001	      0.00000000	      0.00000000
      2.07000000	      0.37997225	      1.44813015	     -5.15864059	      0.23785481	      0.88074039	     -0.18537913	     -5.82815975	    -13.08076202	     -0.13117596	     50.06726245	     14.69926006	      0.87383858	     -7.79864816	      0.95866641	     -7.50400219	     18.44475830	     -4.99150617	     -3.19767054	     19.64027411	     16.88729129	      0.34278745	      2.57385066	     -1.99952585	     -7.50400219	    -13.22016316	     -2.78645674	      3.06157156	     -6.97785524	    -13.26440016	     -6.03236988	     17.28024142	     90.00000001	      0.00000000	      0.00000000	    -11.55248712	    -10.53837060	      4.37813898	     21.97442322	     90.00000001	      0.00000000	      0.00000000
      2.08000000	      0.25542057	      1.33819024	     -4.95376644	      0.24855946	      0.88248193	     -0.18631099	     -3.93002423	    -12.98310192	      0.31117559	     52.43571301	     14.46785776	      0.91517584	     -7.14769834	     -0.73024734	     -7.50391391	     17.72379436	     -4.96626755	     -3.27680613	     19.52169674	     16.90586677	      0.34071788	      3.35422557	     -1.14895166	     -7.50391391	    -13.21752857	     -2.59287860	      2.86949579	     -7.13065344	    -13.28825738	     -5.99418373	     17.21278313	     90.00000001	      0.00000000	      0.00000000	    -11.33720376	    -10.74873814	      4.40825349	     22.18721544	     90.00000001	      0.00000000	      0.00000000
      2.09000000	      0.47056620	      1.04600615	     -4.47658726	      0.25912211	      0.88475962	     -0.18775827	     -2.66209907	    -12.72385774	      0.58136048	     54.17020094	     14.46999504	      0.94544836	     -6.33454382	     -1.47902739	     -7.50386666	     16.72330349	     -4.96777710	     -3.20741564	     19.51960427	     16.78627893	      0.34068136	      3.70049697	     -0.69006846	     -7.50386666	    -13.66481745	     -2.12559854	      2.38225477	     -7.18756174	    -13.39593575	     -5.99735144	     17.29630239	     90.00000001	      0.00000000	      0.00000000	    -11.06328434	    -10.86684715	      4.43659597	     22.39832591	     90.00000001	      0.00000000	      0.00000000
      2.10000000	     -0.19685638	      1.00678365	     -4.55119472	      0.26946164	      0.88572777	     -0.18816318	      0.07186457	    -12.54669054	      1.13473698	     56.30895296	     14.05921247	      0.98277663	     -4.97900754	     -4.32560989	     -7.50353649	     16.58567442	     -5.03749936	     -3.91733123	     19.49702276	     16.69443777	      0.34028724	      4.87325173	      1.21227641	     -7.50353649	    -12.96683746	     -2.02599877	      2.53506153	     -7.43176150	    -13.35593516	     -5.96965281	     17.10381175	     90.00000001	      0.00000000	      0.00000000	    -10.93285190	    -11.09627845	      4.56917961	     22.58055897	     90.00000001	      0.00000000	      0.00000000
      2.11000000	     -0.12802792	      0.79799695	     -4.30175702	      0.28010334	      0.88776418	     -0.18900415	      1.58537424	    -12.24633231	      0.83084240	     57.65000171	     13.39491756	      1.00618234	     -3.17940556	     -5.32106898	     -7.50346911	     15.47095783	     -5.08074533	     -3.85274688	     18.97937946	     16.69532591	      0.33125266	      5.39709672	      1.84075514	     -7.50346911	    -13.12898330	     -1.70750101	      2.31213581	     -7.57272748	    -13.38414569	     -5.93500807	     17.06557574	     90.00000001	      0.00000000	      0.00000000	    -10.74598389	    -11.27362319	      4.58041267	     22.77976227	     90.00000001	      0.00000000	      0.00000000
